<svg id="Layer_1" data-name="Layer 1" xmlns="http://www.w3.org/2000/svg" viewBox="0 0 500 500"><defs><style>.cls-1{fill:none;stroke:#fff;stroke-miterlimit:10;stroke-width:25.51px;}.cls-2{fill:#fff;}</style></defs><circle class="cls-1" cx="252" cy="252" r="180"/><path class="cls-2" d="M240.53,292q5.08-17.1,12.21-28.91a320.74,320.74,0,0,1,18.46-26.86q8.39-11.13,13.18-18.65a79.46,79.46,0,0,0,7.91-16.4,57.72,57.72,0,0,0,3.12-19.24v-.2q0-22.65-11.23-35.06t-31.54-12.4q-21.28,0-33.1,14.75t-12,41.5v.2H178.81v-.2q.78-25.78,9.77-44t25.19-27.83q16.22-9.57,38.48-9.57,23.24,0,39.84,8.59a58.45,58.45,0,0,1,25.3,24.9q8.69,16.32,8.69,39.36v.19a82.94,82.94,0,0,1-3.91,26.37,84,84,0,0,1-9.67,20.31q-5.76,8.59-15.72,21.1-10.93,13.66-17.48,23.73a101.19,101.19,0,0,0-11.13,24.41q-4.59,14.35-4.59,32.91H235.45Q235.45,309.09,240.53,292Zm-6.83,72h32v32h-32Z"/></svg>