<svg id="Layer_1" data-name="Layer 1" xmlns="http://www.w3.org/2000/svg" viewBox="0 0 500 500"><defs><style>.cls-1{fill:none;stroke:#fff;stroke-miterlimit:10;stroke-width:25.51px;}</style></defs><path class="cls-1" d="M405,252a153.72,153.72,0,0,0-2.72-28.82l23.6-30-36-62.36-37.8,5.45a152.73,152.73,0,0,0-49.91-28.84L288,72H216l-14.17,35.43a152.73,152.73,0,0,0-49.91,28.84l-37.8-5.45-36,62.36,23.6,30a154,154,0,0,0,0,57.64l-23.6,30,36,62.36,37.8-5.45a152.73,152.73,0,0,0,49.91,28.84L216,432h72l14.17-35.43a152.73,152.73,0,0,0,49.91-28.84l37.8,5.45,36-62.36-23.6-30A153.72,153.72,0,0,0,405,252Z"/><circle class="cls-1" cx="252" cy="252" r="81"/></svg>