<svg id="Layer_1" data-name="Layer 1" xmlns="http://www.w3.org/2000/svg" viewBox="0 0 1000 1000"><defs><style>.cls-1{fill:#fff;}</style></defs><polygon class="cls-1" points="932 612.5 644 612.5 500 756.5 356 612.5 68 612.5 113 657.5 338 657.5 500 819.5 662 657.5 887 657.5 932 612.5"/><polygon class="cls-1" points="761 765.5 734 792.5 554 792.5 581 765.5 761 765.5"/><polygon class="cls-1" points="806 720.5 779 747.5 599 747.5 626 720.5 806 720.5"/><polygon class="cls-1" points="851 675.5 824 702.5 644 702.5 671 675.5 851 675.5"/><polygon class="cls-1" points="239 765.5 266 792.5 446 792.5 419 765.5 239 765.5"/><polygon class="cls-1" points="194 720.5 221 747.5 401 747.5 374 720.5 194 720.5"/><polygon class="cls-1" points="149 675.5 176 702.5 356 702.5 329 675.5 149 675.5"/><path class="cls-1" d="M828.62,594.5a334.9,334.9,0,0,0,4.38-54c0-183.91-149.09-333-333-333s-333,149.09-333,333a334.9,334.9,0,0,0,4.38,54H144a362.8,362.8,0,0,1-4-54c0-198.82,161.18-360,360-360s360,161.18,360,360a362.8,362.8,0,0,1-4,54Z"/><polygon class="cls-1" points="500 252.5 644 585.5 500 729.5 356 585.5 500 252.5"/></svg>